<svg version="1.1" xmlns="http://www.w3.org/2000/svg" viewBox="0 0 1158 784" fill="currentColor">
<path fill-rule="evenodd" clip-rule="evenodd" d="M572.178 13.5333C568.384 21.4603 557.28 44.5954 547.503 64.9454C537.726 85.2954 527.374 106.895 524.499 112.945C488.879 187.911 462.883 243.619 447.337 278.296C441.506 291.303 433.581 308.92 429.727 317.445C409.909 361.282 367.546 459.1 362.501 472.675C361.535 475.276 360.455 477.226 360.103 477.008C359.75 476.791 352.945 471.359 344.981 464.938C321.26 445.814 283.665 415.777 265.5 401.436C247.215 386.999 182.046 334.991 139 300.482C124.425 288.797 102.869 271.522 91.097 262.091C79.325 252.661 64.7 240.874 58.597 235.899C52.494 230.924 38.05 219.272 26.5 210.006C14.95 200.74 4.262 192.014 2.75 190.615C1.238 189.216 0 188.596 0 189.237C0 194.474 96.867 422.787 133.523 503.945C156.076 553.88 197.666 638.451 227.698 695.445L240.607 719.945L603.612 720.196L966.617 720.448L968.334 715.196C969.278 712.308 972.313 702.52 975.078 693.445C986.29 656.642 1009.99 584.633 1021.65 551.945C1029.75 529.249 1062.78 440.584 1086.29 378.445C1096.17 352.32 1107.52 322.17 1111.51 311.445C1124.86 275.553 1146.26 219.143 1157.6 189.945C1158.17 188.48 1157.06 189.005 1153.44 191.909C1146.73 197.29 1090.28 243.829 1064.94 264.873C1053.62 274.262 1032.08 292.07 1017.05 304.445C989.109 327.462 974.361 339.64 914 389.544C880.404 417.319 871.425 424.772 833 456.771C822.825 465.245 814.446 472.125 814.38 472.061C814.193 471.881 784.569 414.477 772.26 390.445C766.203 378.62 755.501 357.731 748.477 344.025L735.707 319.106L732.103 323.087C725.388 330.508 712.504 345.646 711.682 347.083C711.142 348.025 712.548 351.653 715.806 357.728C718.525 362.797 723.788 372.795 727.502 379.945C731.216 387.095 736.165 396.545 738.5 400.945C740.835 405.345 747.816 418.845 754.013 430.945C797.86 516.555 846.419 603.234 887.343 668.945L894.817 680.945L751.328 681.198C672.409 681.338 543.591 681.338 465.066 681.198L322.293 680.945L328.165 665.445C331.395 656.92 337.383 640.945 341.472 629.945C357.52 586.769 363.191 571.648 366.034 564.445C367.663 560.32 373.758 544.795 379.578 529.945C390.104 503.093 393.134 495.61 409.343 456.445C438.553 385.868 484.497 282.05 521.527 202.945C531.826 180.945 543.619 155.745 547.735 146.945C551.851 138.145 558.663 123.745 562.872 114.945C567.082 106.145 572.32 95.0264 574.513 90.2354C576.706 85.4454 578.764 81.5074 579.087 81.4854C579.632 81.4484 609.913 142.347 651.8 227.72C661.454 247.396 669.682 263.371 670.086 263.22C670.489 263.069 676.419 257.095 683.264 249.945L695.708 236.945L677.584 200.445C646.922 138.697 605.177 52.8923 588.309 16.9453C584.18 8.14535 580.413 0.535347 579.939 0.0333472C579.442 -0.491653 576.151 5.23435 572.178 13.5333ZM311.992 113.455C310.566 118.731 299.428 163.504 288.113 209.445C283.711 227.32 273.785 267.53 266.055 298.8C258.325 330.07 252.012 356.395 252.027 357.3C252.042 358.205 257.33 363.102 263.777 368.182C270.225 373.262 276.989 378.822 278.81 380.538C280.63 382.254 282.224 383.498 282.352 383.302C282.48 383.106 284.024 376.87 285.783 369.445C290.562 349.28 298.426 316.708 304.496 291.945C310.475 267.551 319.366 231.104 326.525 201.641L331.216 182.338L334.858 186.641C345.468 199.179 415.642 275.764 416.956 276.24C417.677 276.501 431.837 251.714 433.555 247.183C434.303 245.211 434.618 245.591 400.612 207.477C388.574 193.984 373.949 177.549 368.112 170.954C362.276 164.359 355.222 156.484 352.437 153.454C346.194 146.662 318.294 115.156 315.353 111.578L313.206 108.966L311.992 113.455ZM840.378 113.814C837.429 117.345 822.383 134.611 797.563 162.945C789.854 171.745 769.586 194.412 752.523 213.317C735.461 232.222 718.8 250.723 715.5 254.431C712.2 258.14 695.691 276.302 678.814 294.793C661.936 313.283 638.57 338.882 626.889 351.678C607.428 372.999 596.611 384.887 568.462 415.889C562.942 421.97 556.192 429.48 553.462 432.578C550.733 435.676 540.4 447.153 530.5 458.083C520.6 469.012 510.815 479.943 508.755 482.374L505.01 486.793L504.755 388.369L504.5 289.945L487 324.945L469.5 359.945L469.24 509.695L468.981 659.445H486.99H505V599.422V539.4L519.25 523.241C527.087 514.354 535.575 504.837 538.112 502.093L542.724 497.103L602.612 556.105C635.55 588.556 672.684 625.083 685.132 637.276L707.764 659.445H731.904H756.043L662.313 566.102L568.583 472.759L586.721 452.352C634.144 398.998 702.787 322.285 728.016 294.445C748.452 271.895 797.94 216.34 816 195.676C823.98 186.546 827.607 183.043 827.848 184.232C828.039 185.174 830.814 195.62 834.014 207.445C837.214 219.27 843.278 241.995 847.49 257.945C851.702 273.895 856.653 292.345 858.492 298.945C860.331 305.545 864.166 319.495 867.015 329.945C871.293 345.639 878.482 371.4 880.611 378.662C881.014 380.037 884.2 378.051 896.585 368.706C905.094 362.285 911.879 356.562 911.663 355.988C910.582 353.113 891.025 283.874 883.122 254.945C871.451 212.219 861.155 174.262 859.524 167.945C856.346 155.64 843.963 111.074 843.628 110.74C843.423 110.535 841.961 111.919 840.378 113.814ZM91.509 306.395C101.454 314.77 180.102 377.768 217 406.916C231.575 418.429 261.321 442.046 283.102 459.397C304.883 476.749 327.527 494.704 333.423 499.299C339.319 503.893 344.367 508.239 344.642 508.955C344.917 509.672 341.457 519.188 336.953 530.102C332.448 541.016 327.284 553.545 325.476 557.945C323.668 562.345 319.953 571.345 317.222 577.945C302.047 614.61 285.266 655.456 277.891 673.677C273.276 685.08 269.204 694.417 268.843 694.427C268.269 694.443 262.307 683.25 233.964 628.945C220.654 603.443 195.549 552.512 180.728 520.945C160.972 478.866 156.153 468.204 133.494 416.445C111.16 365.427 104.225 349.644 100.975 342.445C92.098 322.776 82.181 299.445 82.698 299.445C83.005 299.445 86.97 302.573 91.509 306.395ZM1064.66 331.591C1032.88 411.502 1016.78 453.394 985.712 536.945C964.975 592.716 937.197 670.504 935.451 677.695C934.798 680.386 933 681.564 933 679.302C933 678.673 929.44 672.035 925.088 664.552C899.425 620.419 881.949 590.198 860.258 552.445C846.829 529.07 834.99 508.563 833.95 506.875L832.059 503.804L845.279 493.267C859.133 482.224 904.742 444.464 938.097 416.421C971.025 388.736 1015.97 350.83 1047 324.58C1063.23 310.853 1076.64 299.76 1076.81 299.929C1076.98 300.098 1071.51 314.346 1064.66 331.591ZM242.167 740.398C242.74 742.037 264.177 756.935 277.614 765.033C284.679 769.291 295.418 775.171 301.48 778.1L312.5 783.427L603.621 783.436L894.743 783.445L909.621 775.992C925.521 768.028 940.665 758.584 955.99 747.073L965.481 739.945L937.4 739.68C909.544 739.417 909.266 739.434 902.651 741.924L895.982 744.435L603.505 744.453L311.027 744.472L304.841 741.959C298.736 739.478 298.283 739.445 270.244 739.445C252.661 739.445 241.96 739.808 242.167 740.398Z"/>
</svg>
